<svg width="20" height="20" viewBox="0 0 20 20" fill="none" xmlns="http://www.w3.org/2000/svg">
<g clip-path="url(#clip0_375_1392)">
<path d="M18.915 3.48467C18.97 3.48467 19.015 3.52966 19.015 3.58464V16.4154C19.015 16.4703 18.97 16.5153 18.915 16.5153H1.085C1.03 16.5153 0.985 16.4703 0.985 16.4154V3.58464C0.985 3.52966 1.03 3.48467 1.085 3.48467H18.915ZM18.915 2.5H1.085C0.485 2.5 0 2.98484 0 3.58464V16.4154C0 17.0152 0.485 17.5 1.085 17.5H18.915C19.515 17.5 20 17.0152 20 16.4154V3.58464C20 2.98484 19.515 2.5 18.915 2.5Z" fill="#404040"/>
<path d="M1 6.5H19V7.5H1V6.5Z" fill="#404040"/>
<path d="M3 9.5H5V10.5H3V9.5Z" fill="#404040"/>
<path d="M3 12.5H5V13.5H3V12.5Z" fill="#404040"/>
<path d="M6 9.5H8V10.5H6V9.5Z" fill="#404040"/>
<path d="M6 12.5H8V13.5H6V12.5Z" fill="#404040"/>
<path d="M9 9.5H11V10.5H9V9.5Z" fill="#404040"/>
<path d="M9 12.5H11V13.5H9V12.5Z" fill="#404040"/>
<path d="M12 9.5H14V10.5H12V9.5Z" fill="#404040"/>
<path d="M12 12.5H14V13.5H12V12.5Z" fill="#404040"/>
<path d="M15 9.5H17V10.5H15V9.5Z" fill="#404040"/>
<path d="M15 12.5H17V13.5H15V12.5Z" fill="#404040"/>
<path d="M6 1H7V5H6V1Z" fill="#404040"/>
<path d="M13 1H14V5H13V1Z" fill="#404040"/>
</g>
<defs>
<clipPath id="clip0_375_1392">
<rect width="20" height="20" fill="white"/>
</clipPath>
</defs>
</svg>
