<svg width="20" height="20" viewBox="0 0 20 20" fill="none" xmlns="http://www.w3.org/2000/svg">
<path d="M1.14648 1.12813L18.8637 7.18979V7.19981L11.3888 10.8699L11.0429 11.0404L10.8724 11.3863L7.20263 18.8819L1.12643 1.14818C1.12643 1.14818 1.13645 1.13314 1.14648 1.12813ZM1.14648 2.50961e-05C0.404502 -0.00498868 -0.202115 0.742065 0.0635934 1.50917L6.13478 19.2529C6.30523 19.7443 6.7414 20 7.18759 20C7.59367 20 8.00476 19.7894 8.21533 19.3532L11.8851 11.8827L19.355 8.2126C20.2624 7.76637 20.1973 6.45778 19.2548 6.13188L1.51246 0.0601905C1.38712 0.0200802 1.2668 2.50961e-05 1.14648 2.50961e-05Z" fill="#404040"/>
</svg>
