<svg width="424" height="116" viewBox="0 0 424 116" fill="none" xmlns="http://www.w3.org/2000/svg">
<g clip-path="url(#clip0_349_1332)">
<path d="M69.5952 0V32.6782C62.4871 27.8797 53.9333 25.0755 44.7369 25.0755C20.0292 25.0755 0 45.2716 0 70.1852C0 95.0988 20.0292 115.285 44.7369 115.285C66.3323 115.285 84.3536 99.8567 88.5401 79.3266C89.1425 76.3807 89.4638 73.3234 89.4638 70.1852V0H69.5952ZM44.7369 95.0481C31.113 95.0481 20.0694 83.9226 20.0694 70.1852C20.0694 56.4478 31.113 45.3121 44.7369 45.3121C58.3608 45.3121 69.3944 56.4478 69.3944 70.1852C69.3944 83.9226 58.3508 95.0481 44.7369 95.0481Z" fill="#FF5924"/>
<path d="M334.473 0V70.1852C334.473 73.3234 334.794 76.3807 335.396 79.3266C339.583 99.8567 357.604 115.285 379.2 115.285C403.907 115.285 423.936 95.0988 423.936 70.1852C423.936 45.2716 403.907 25.0755 379.2 25.0755C370.003 25.0755 361.449 27.8797 354.341 32.6782V0H334.473ZM354.542 70.1852C354.542 56.4478 365.586 45.3121 379.2 45.3121C392.813 45.3121 403.867 56.4478 403.867 70.1852C403.867 83.9226 392.823 95.0481 379.2 95.0481C365.576 95.0481 354.542 83.9226 354.542 70.1852Z" fill="#191919"/>
<path d="M176.98 81.6043C172.573 88.3667 164.982 92.8412 156.358 92.8412C142.735 92.8412 131.701 81.7056 131.701 67.9783C131.701 54.251 142.745 43.1154 156.358 43.1154C165.033 43.1154 172.653 47.6304 177.05 54.4636H199.951C194.228 35.6646 176.87 21.998 156.358 21.998C131.169 21.998 110.758 42.5889 110.758 67.9783C110.758 93.3677 131.179 113.959 156.358 113.959C176.839 113.959 194.158 100.353 199.921 81.6043H176.98Z" fill="#191919"/>
<path d="M227.991 0H207.019V112.379H227.991V0Z" fill="#191919"/>
<path d="M327.615 22.7775V67.5227C327.615 69.2437 327.525 70.9343 327.344 72.6047C324.824 95.6049 305.488 113.503 282.005 113.503C258.522 113.503 239.196 95.6049 236.686 72.6047C236.495 70.9343 236.405 69.2437 236.405 67.5227V22.7775H257.378V66.2472C257.358 66.6623 257.348 67.0976 257.348 67.5227C257.348 67.9479 257.358 68.3731 257.378 68.7983C258.04 81.9384 268.813 92.3857 282.005 92.3857C295.197 92.3857 305.91 82.0093 306.633 68.9299C306.663 68.4642 306.673 67.9985 306.673 67.5227C306.673 67.0469 306.663 66.5813 306.633 66.1257V22.7775H327.615Z" fill="#191919"/>
<path d="M267.419 66.2472V68.7983C267.398 68.3731 267.387 67.9479 267.387 67.5227C267.387 67.0975 267.398 66.6622 267.419 66.2472Z" fill="#FF5924"/>
<path d="M316.715 67.5228C316.715 67.9985 316.704 68.4642 316.672 68.9299V66.1257C316.704 66.5813 316.715 67.0571 316.715 67.5228Z" fill="#FF5924"/>
<path d="M98.8763 89.25C112.528 89.25 123.595 78.1504 123.595 64.4583C123.595 50.7663 112.528 39.6667 98.8763 39.6667C85.2243 39.6667 74.1572 50.7663 74.1572 64.4583C74.1572 78.1504 85.2243 89.25 98.8763 89.25Z" fill="url(#paint0_radial_349_1332)"/>
</g>
<defs>
<radialGradient id="paint0_radial_349_1332" cx="0" cy="0" r="1" gradientUnits="userSpaceOnUse" gradientTransform="translate(115.031 76.1791) rotate(-118.231) scale(42.3875 42.319)">
<stop stop-color="white"/>
<stop offset="0.08" stop-color="#FFEDE8"/>
<stop offset="0.25" stop-color="#FFC1AE"/>
<stop offset="0.49" stop-color="#FF7B51"/>
<stop offset="0.61" stop-color="#FF5924"/>
<stop offset="0.76" stop-color="#FF5A25"/>
<stop offset="0.81" stop-color="#FF5F2C"/>
<stop offset="0.91" stop-color="#FF865F"/>
</radialGradient>
<clipPath id="clip0_349_1332">
<rect width="424" height="116" fill="white"/>
</clipPath>
</defs>
</svg>
