<svg width="20" height="16" viewBox="0 0 20 16" fill="none" xmlns="http://www.w3.org/2000/svg">
<path d="M18.915 1.48467C18.97 1.48467 19.015 1.52966 19.015 1.58464V14.4154C19.015 14.4703 18.97 14.5153 18.915 14.5153H1.085C1.03 14.5153 0.985 14.4703 0.985 14.4154V1.58464C0.985 1.52966 1.03 1.48467 1.085 1.48467H18.915ZM18.915 0.5H1.085C0.485 0.5 0 0.984838 0 1.58464V14.4154C0 15.0152 0.485 15.5 1.085 15.5H18.915C19.515 15.5 20 15.0152 20 14.4154V1.58464C20 0.984838 19.515 0.5 18.915 0.5Z" fill="#231815"/>
<path fill-rule="evenodd" clip-rule="evenodd" d="M0.190186 1.89243L0.80983 1.10754L10 8.36295L19.1902 1.10754L19.8098 1.89243L10 9.63702L0.190186 1.89243Z" fill="#231815"/>
</svg>
