<svg width="20" height="18" viewBox="0 0 20 18" fill="none" xmlns="http://www.w3.org/2000/svg">
<path d="M20 17H0V18H20V17Z" fill="#242424"/>
<path d="M17.5236 0.902335C17.7071 0.902335 17.8856 0.933917 18.0542 0.992569C18.818 1.25876 19.2048 2.04379 18.9122 2.7431L13.8387 14.7622L11.84 15.7232L11.0613 13.7922L16.1349 1.77309C16.3531 1.25425 16.9135 0.902335 17.5236 0.902335ZM17.5236 0C16.5267 0 15.5844 0.550425 15.2075 1.44825L10 13.7832L11.2994 17L14.6322 15.4029L19.8347 3.06794C20.3257 1.90393 19.6859 0.600053 18.4064 0.153397C18.1137 0.0496284 17.8112 0.00451167 17.5186 0.00451167L17.5236 0Z" fill="#242424"/>
<path d="M10.4068 12.8221L10.0547 13.6658L14.6819 15.281L15.039 14.4373L10.4068 12.8221Z" fill="#242424"/>
</svg>
