<svg width="16" height="16" viewBox="0 0 16 16" fill="none" xmlns="http://www.w3.org/2000/svg">
<circle cx="8" cy="8" r="7.5" stroke="#8F8F8F"/>
<path d="M7.2942 9.348H8.2662C8.0382 7.464 10.2102 6.768 10.2102 5.004C10.2102 3.684 9.3222 2.856 7.9542 2.856C6.9822 2.856 6.2262 3.336 5.6622 3.96L6.2862 4.536C6.7062 4.056 7.2462 3.768 7.8462 3.768C8.6982 3.768 9.1422 4.356 9.1422 5.076C9.1422 6.492 7.0062 7.26 7.2942 9.348ZM7.8102 12.168C8.2422 12.168 8.6022 11.82 8.6022 11.328C8.6022 10.824 8.2422 10.488 7.8102 10.488C7.3662 10.488 7.0182 10.824 7.0182 11.328C7.0182 11.82 7.3662 12.168 7.8102 12.168Z" fill="#8F8F8F"/>
</svg>
