<svg width="20" height="20" viewBox="0 0 20 20" fill="none" xmlns="http://www.w3.org/2000/svg">
<path d="M8.5 1C12.635 1 16 4.365 16 8.5C16 12.635 12.635 16 8.5 16C4.365 16 1 12.635 1 8.5C1 4.365 4.365 1 8.5 1ZM8.5 0C3.805 0 0 3.805 0 8.5C0 13.195 3.805 17 8.5 17C13.195 17 17 13.195 17 8.5C17 3.805 13.195 0 8.5 0Z" fill="#242424"/>
<path fill-rule="evenodd" clip-rule="evenodd" d="M14.1464 14.1464C14.3417 13.9512 14.6583 13.9512 14.8536 14.1464L19.8536 19.1464C20.0488 19.3417 20.0488 19.6583 19.8536 19.8536C19.6583 20.0488 19.3417 20.0488 19.1464 19.8536L14.1464 14.8536C13.9512 14.6583 13.9512 14.3417 14.1464 14.1464Z" fill="#242424"/>
</svg>
