<svg width="20" height="20" viewBox="0 0 20 20" fill="none" xmlns="http://www.w3.org/2000/svg">
<path d="M10.0001 1.5C11.9301 1.5 13.5001 3.07 13.5001 5C13.5001 6.93 11.9301 8.5 10.0001 8.5C8.07006 8.5 6.50006 6.93 6.50006 5C6.50006 3.07 8.07006 1.5 10.0001 1.5ZM10.0001 0.5C7.51506 0.5 5.50006 2.515 5.50006 5C5.50006 7.485 7.51506 9.5 10.0001 9.5C12.4851 9.5 14.5001 7.485 14.5001 5C14.5001 2.515 12.4851 0.5 10.0001 0.5Z" fill="#404040"/>
<path d="M10 11.5C15.055 11.5 18.46 14.02 18.94 18H1.07C1.605 14.18 5.195 11.5 10 11.5ZM10 10.5C4 10.5 0 14.305 0 19H20C20 14.305 16.5 10.5 10 10.5Z" fill="#404040"/>
</svg>
